G04 Layer_Physical_Order=1*
G04 Layer_Color=255*
%FSAX25Y25*%
%MOIN*%
G70*
G01*
G75*
%ADD10R,0.04331X0.03937*%
%ADD11R,0.03937X0.04331*%
%ADD12C,0.01000*%
%ADD13C,0.06000*%
%ADD14C,0.05906*%
%ADD15C,0.15000*%
%ADD16C,0.05000*%
D10*
X0259246Y0270500D02*
D03*
X0252554D02*
D03*
X0259447Y0281300D02*
D03*
X0252753D02*
D03*
X0295346Y0319100D02*
D03*
X0288653D02*
D03*
X0329946Y0214100D02*
D03*
X0323253D02*
D03*
X0349946Y0214200D02*
D03*
X0343253D02*
D03*
X0354246Y0235600D02*
D03*
X0347553D02*
D03*
X0364247Y0319100D02*
D03*
X0357554D02*
D03*
X0364054Y0235900D02*
D03*
X0370746D02*
D03*
D11*
X0229000Y0307047D02*
D03*
Y0300354D02*
D03*
X0374900Y0150247D02*
D03*
Y0143553D02*
D03*
X0375000Y0164847D02*
D03*
Y0158153D02*
D03*
X0375200Y0181746D02*
D03*
Y0175054D02*
D03*
X0375100Y0196447D02*
D03*
Y0189753D02*
D03*
X0375000Y0211146D02*
D03*
Y0204453D02*
D03*
X0321500Y0306747D02*
D03*
Y0300054D02*
D03*
X0321600Y0290247D02*
D03*
Y0283554D02*
D03*
X0321400Y0273746D02*
D03*
Y0267054D02*
D03*
X0321200Y0257347D02*
D03*
Y0250654D02*
D03*
X0320900Y0240047D02*
D03*
Y0233353D02*
D03*
X0379500Y0308646D02*
D03*
Y0301954D02*
D03*
X0378700Y0248654D02*
D03*
Y0255346D02*
D03*
X0380800Y0268653D02*
D03*
Y0275346D02*
D03*
X0380500Y0284254D02*
D03*
Y0290947D02*
D03*
X0229100Y0322646D02*
D03*
Y0315953D02*
D03*
D12*
X0222746Y0322646D02*
X0229100D01*
X0220800Y0320700D02*
X0222746Y0322646D01*
X0220800Y0314600D02*
Y0320700D01*
X0215600Y0309400D02*
X0220800Y0314600D01*
X0196236Y0309400D02*
X0215600D01*
X0189200Y0302364D02*
X0196236Y0309400D01*
X0189200Y0288636D02*
Y0302364D01*
Y0288636D02*
X0193700Y0284136D01*
Y0280500D02*
Y0284136D01*
X0288600Y0230900D02*
Y0246800D01*
X0284700Y0250700D02*
X0288600Y0246800D01*
X0284700Y0250700D02*
Y0257064D01*
X0289200Y0261564D01*
Y0265200D01*
X0286400Y0186700D02*
X0308300Y0164800D01*
X0311764D01*
X0314400Y0162164D01*
Y0153603D02*
Y0162164D01*
Y0153603D02*
X0333203Y0134800D01*
X0374400D01*
X0318754Y0235500D02*
X0320900Y0233353D01*
X0298700Y0235500D02*
X0318754D01*
X0286400Y0216700D02*
X0293700Y0224000D01*
Y0277064D01*
X0289200Y0281564D02*
X0293700Y0277064D01*
X0289200Y0281564D02*
Y0285200D01*
X0320900Y0233353D02*
X0333154Y0221100D01*
X0365047D01*
X0375000Y0211146D02*
X0379300Y0215446D01*
Y0234300D01*
X0365047Y0221100D02*
X0375000Y0211146D01*
X0322300Y0192000D02*
Y0197200D01*
Y0192000D02*
X0331800Y0182500D01*
X0220900Y0307800D02*
X0221654Y0307047D01*
X0229000D01*
X0245000Y0346500D02*
X0274100D01*
X0322006Y0283147D02*
X0337554Y0267600D01*
X0322006Y0283147D02*
X0340044D01*
X0342653Y0285756D01*
Y0289444D01*
X0340044Y0292053D02*
X0342653Y0289444D01*
X0337450Y0292053D02*
X0340044D01*
X0333747Y0295756D02*
X0337450Y0292053D01*
X0333747Y0295756D02*
Y0299444D01*
X0336356Y0302053D01*
X0338950D01*
X0342653Y0305755D01*
Y0309444D01*
X0340044Y0312053D02*
X0342653Y0309444D01*
X0315289Y0312053D02*
X0340044D01*
X0305400Y0302164D02*
X0315289Y0312053D01*
X0305400Y0278436D02*
Y0302164D01*
Y0278436D02*
X0309900Y0273936D01*
Y0270300D02*
Y0273936D01*
X0222600Y0294900D02*
X0236403D01*
X0221100Y0296400D02*
X0222600Y0294900D01*
X0221100Y0296400D02*
Y0301900D01*
X0255553Y0297753D02*
X0271100Y0313300D01*
X0239256Y0297753D02*
X0255553D01*
X0236403Y0294900D02*
X0239256Y0297753D01*
X0215600Y0307400D02*
X0221100Y0301900D01*
X0200600Y0307400D02*
X0215600D01*
X0193700Y0300500D02*
X0200600Y0307400D01*
X0271100Y0303300D02*
X0276500Y0297900D01*
Y0282500D02*
Y0297900D01*
X0269900Y0275900D02*
X0276500Y0282500D01*
X0228300Y0275900D02*
X0269900D01*
X0203700Y0300500D02*
X0228300Y0275900D01*
X0286400Y0146700D02*
X0293572D01*
X0312272Y0128000D01*
X0385628D01*
X0394400Y0136772D01*
Y0155800D01*
X0389900Y0160300D02*
X0394400Y0155800D01*
X0281900Y0211200D02*
X0286400Y0206700D01*
X0281900Y0211200D02*
Y0267900D01*
X0289200Y0275200D01*
X0363747Y0299444D02*
X0367450Y0303147D01*
X0370919D01*
X0363747Y0272053D02*
X0368200Y0267600D01*
X0363747Y0272053D02*
Y0299444D01*
X0370919Y0303147D02*
X0376418Y0308646D01*
X0379500D01*
X0338200Y0267600D02*
X0368200D01*
X0331800Y0182500D02*
X0361800D01*
X0331800Y0142500D02*
X0339700Y0150400D01*
Y0154600D01*
X0331800Y0162500D02*
X0339700Y0154600D01*
X0286400Y0156700D02*
X0313100Y0130000D01*
X0384800D01*
X0389900Y0135100D01*
Y0150300D01*
X0278100Y0145000D02*
X0286400Y0136700D01*
X0278100Y0145000D02*
Y0158400D01*
X0286400Y0166700D01*
X0338200Y0297600D02*
X0357554Y0316953D01*
Y0319100D01*
X0369046D02*
X0379500Y0308646D01*
X0364247Y0319100D02*
X0369046D01*
X0299400Y0270800D02*
X0309900Y0260300D01*
X0299400Y0270800D02*
Y0285000D01*
X0289200Y0295200D02*
X0299400Y0285000D01*
X0271100Y0323300D02*
X0282000Y0334200D01*
Y0346500D01*
X0231700Y0353300D02*
X0238200D01*
X0229100Y0350700D02*
X0231700Y0353300D01*
X0229100Y0322646D02*
Y0350700D01*
X0191500Y0280500D02*
X0193700D01*
X0217400Y0240200D02*
X0241400D01*
X0198600Y0259000D02*
X0217400Y0240200D01*
X0198600Y0259000D02*
Y0285600D01*
X0193700Y0290500D02*
X0198600Y0285600D01*
X0203700Y0290500D02*
X0241400Y0252800D01*
X0241100Y0303300D02*
X0249800Y0312000D01*
Y0326300D01*
X0237100Y0339000D02*
X0249800Y0326300D01*
X0237100Y0339000D02*
Y0346500D01*
X0238200Y0353300D02*
X0245000Y0346500D01*
X0229000Y0300354D02*
X0241100Y0312454D01*
X0271400Y0240200D02*
X0279700Y0248500D01*
Y0310146D01*
X0288653Y0319100D01*
X0295346D02*
X0357554D01*
X0368200Y0297600D02*
X0372553Y0301954D01*
X0379500D01*
X0368200Y0287600D02*
X0371547Y0290947D01*
X0380500D01*
X0384246Y0301954D02*
X0389800Y0296400D01*
Y0277900D02*
Y0296400D01*
X0387246Y0275346D02*
X0389800Y0277900D01*
X0380800Y0275346D02*
X0387246D01*
X0377853Y0284254D02*
X0380500D01*
X0373900Y0280300D02*
X0377853Y0284254D01*
X0373900Y0272000D02*
Y0280300D01*
Y0272000D02*
X0377246Y0268653D01*
X0380800D01*
X0378700Y0266553D02*
X0380800Y0268653D01*
X0378700Y0255346D02*
Y0266553D01*
X0379500Y0301954D02*
X0384246D01*
X0369253Y0248654D02*
X0378700D01*
X0354246Y0243647D02*
X0368200Y0257600D01*
X0354246Y0235600D02*
Y0243647D01*
X0368200Y0247600D02*
X0370746Y0245054D01*
Y0235900D02*
Y0245054D01*
X0354246Y0235600D02*
X0363754D01*
X0338200Y0244953D02*
X0347553Y0235600D01*
X0338200Y0244953D02*
Y0247600D01*
X0321500Y0306747D02*
X0337347D01*
X0335554Y0290247D02*
X0338200Y0287600D01*
X0321600Y0290247D02*
X0335554D01*
X0321500Y0290347D02*
Y0300054D01*
X0335146Y0250654D02*
X0338200Y0247600D01*
X0321200Y0250654D02*
X0335146D01*
X0321200Y0257347D02*
X0337947D01*
X0317146Y0306747D02*
X0321500D01*
X0315500Y0305100D02*
X0317146Y0306747D01*
X0315500Y0279646D02*
Y0305100D01*
X0321400Y0257546D02*
Y0267054D01*
X0315500Y0279646D02*
X0321400Y0273746D01*
X0321200Y0257347D02*
X0321400Y0257546D01*
X0318354Y0240047D02*
X0320900D01*
X0315000Y0243400D02*
X0318354Y0240047D01*
X0315000Y0243400D02*
Y0254900D01*
X0317446Y0257347D01*
X0321200D01*
X0366146Y0158153D02*
X0375000D01*
X0361800Y0162500D02*
X0366146Y0158153D01*
X0369247Y0189753D02*
X0375100D01*
X0366500Y0192500D02*
X0369247Y0189753D01*
X0361800Y0192500D02*
X0366500D01*
X0367853Y0196447D02*
X0375100D01*
X0361800Y0202500D02*
X0367853Y0196447D01*
X0316400Y0187900D02*
Y0228854D01*
Y0187900D02*
X0331800Y0172500D01*
X0316400Y0228854D02*
X0320900Y0233353D01*
X0327400Y0202500D02*
X0331800D01*
X0323253Y0206646D02*
X0327400Y0202500D01*
X0323253Y0206646D02*
Y0214100D01*
X0343253Y0203954D02*
Y0214200D01*
X0329946Y0214100D02*
X0343154D01*
X0229100Y0307147D02*
Y0315953D01*
X0375100Y0189753D02*
X0378854D01*
X0381300Y0192200D01*
Y0202700D01*
X0379546Y0204453D02*
X0381300Y0202700D01*
X0375000Y0204453D02*
X0379546D01*
X0375100Y0181846D02*
Y0189753D01*
X0374900Y0143553D02*
X0382000Y0150654D01*
Y0168254D01*
X0375200Y0175054D02*
X0382000Y0168254D01*
X0375000Y0150347D02*
Y0158153D01*
Y0164847D02*
Y0165597D01*
X0361800Y0178797D02*
X0375000Y0165597D01*
X0361800Y0178797D02*
Y0182500D01*
Y0142500D02*
X0362854Y0143553D01*
X0374900D01*
X0349946Y0214200D02*
X0361647Y0202500D01*
X0331800Y0192500D02*
X0343253Y0203954D01*
X0271400Y0260200D02*
Y0265700D01*
X0266400Y0270700D02*
X0271400Y0265700D01*
X0259647Y0270700D02*
X0266400D01*
X0241400Y0260200D02*
Y0267400D01*
X0244700Y0270700D01*
X0252954D01*
X0241100Y0285300D02*
Y0293300D01*
Y0285300D02*
X0245100Y0281300D01*
X0252753D01*
X0271100Y0285300D02*
Y0293300D01*
X0267100Y0281300D02*
X0271100Y0285300D01*
X0259447Y0281300D02*
X0267100D01*
D13*
X0286400Y0176700D02*
D03*
Y0186700D02*
D03*
Y0196700D02*
D03*
Y0206700D02*
D03*
Y0216700D02*
D03*
Y0166700D02*
D03*
Y0156700D02*
D03*
Y0146700D02*
D03*
Y0136700D02*
D03*
Y0126700D02*
D03*
X0389900Y0220300D02*
D03*
Y0210300D02*
D03*
Y0230300D02*
D03*
Y0190300D02*
D03*
Y0200300D02*
D03*
Y0260300D02*
D03*
Y0240300D02*
D03*
Y0250300D02*
D03*
Y0180300D02*
D03*
Y0150300D02*
D03*
Y0170300D02*
D03*
X0309900Y0180300D02*
D03*
Y0190300D02*
D03*
X0389900Y0160300D02*
D03*
X0309900Y0170300D02*
D03*
Y0300300D02*
D03*
Y0280300D02*
D03*
Y0290300D02*
D03*
Y0260300D02*
D03*
Y0270300D02*
D03*
Y0240300D02*
D03*
Y0250300D02*
D03*
Y0220300D02*
D03*
Y0230300D02*
D03*
Y0210300D02*
D03*
Y0200300D02*
D03*
Y0150300D02*
D03*
Y0160300D02*
D03*
X0203700Y0300500D02*
D03*
Y0290500D02*
D03*
Y0280500D02*
D03*
X0193700Y0300500D02*
D03*
Y0290500D02*
D03*
Y0280500D02*
D03*
X0289200Y0305200D02*
D03*
Y0295200D02*
D03*
Y0285200D02*
D03*
Y0275200D02*
D03*
Y0265200D02*
D03*
Y0255200D02*
D03*
X0282000Y0346500D02*
D03*
X0274100D02*
D03*
X0237100D02*
D03*
X0245000D02*
D03*
D14*
X0271400Y0260200D02*
D03*
Y0250200D02*
D03*
Y0240200D02*
D03*
Y0230200D02*
D03*
X0241400Y0260200D02*
D03*
Y0250200D02*
D03*
Y0240200D02*
D03*
Y0230200D02*
D03*
X0271100Y0303300D02*
D03*
Y0293300D02*
D03*
Y0323300D02*
D03*
Y0313300D02*
D03*
X0241100Y0323300D02*
D03*
Y0313300D02*
D03*
Y0303300D02*
D03*
Y0293300D02*
D03*
X0361800Y0162500D02*
D03*
Y0172500D02*
D03*
Y0152500D02*
D03*
Y0192500D02*
D03*
Y0202500D02*
D03*
Y0182500D02*
D03*
Y0142500D02*
D03*
X0331800Y0202500D02*
D03*
Y0192500D02*
D03*
Y0182500D02*
D03*
Y0172500D02*
D03*
Y0162500D02*
D03*
Y0152500D02*
D03*
Y0142500D02*
D03*
X0368200Y0307600D02*
D03*
Y0297600D02*
D03*
Y0287600D02*
D03*
Y0277600D02*
D03*
Y0267600D02*
D03*
Y0257600D02*
D03*
Y0247600D02*
D03*
X0338200D02*
D03*
Y0257600D02*
D03*
Y0267600D02*
D03*
Y0277600D02*
D03*
Y0287600D02*
D03*
Y0297600D02*
D03*
Y0307600D02*
D03*
D15*
X0200100Y0134900D02*
D03*
X0383200Y0357100D02*
D03*
X0201800Y0356800D02*
D03*
D16*
X0288600Y0230900D02*
D03*
X0374400Y0134800D02*
D03*
X0298700Y0235500D02*
D03*
X0379300Y0234300D02*
D03*
X0322300Y0197200D02*
D03*
X0220900Y0307800D02*
D03*
M02*
