<?xml version="1.0" encoding="UTF-8" standalone="no"?>
<!-- Created with Inkscape (http://www.inkscape.org/) -->

<svg
   xmlns:dc="http://purl.org/dc/elements/1.1/"
   xmlns:cc="http://creativecommons.org/ns#"
   xmlns:rdf="http://www.w3.org/1999/02/22-rdf-syntax-ns#"
   xmlns:svg="http://www.w3.org/2000/svg"
   xmlns="http://www.w3.org/2000/svg"
   xmlns:sodipodi="http://sodipodi.sourceforge.net/DTD/sodipodi-0.dtd"
   xmlns:inkscape="http://www.inkscape.org/namespaces/inkscape"
   width="179.58508mm"
   height="69.841324mm"
   viewBox="0 0 636.3251 247.46926"
   id="svg4410"
   version="1.1"
   inkscape:version="0.91 r13725"
   sodipodi:docname="logo.svg">
  <defs
     id="defs4412" />
  <sodipodi:namedview
     id="base"
     pagecolor="#ffffff"
     bordercolor="#666666"
     borderopacity="1.0"
     inkscape:pageopacity="0.0"
     inkscape:pageshadow="2"
     inkscape:zoom="0.98994949"
     inkscape:cx="369.50261"
     inkscape:cy="60.644551"
     inkscape:document-units="px"
     inkscape:current-layer="layer1"
     showgrid="false"
     borderlayer="false"
     fit-margin-top="0"
     fit-margin-left="0"
     fit-margin-right="0"
     fit-margin-bottom="0"
     inkscape:window-width="1366"
     inkscape:window-height="705"
     inkscape:window-x="-8"
     inkscape:window-y="-8"
     inkscape:window-maximized="1" />
  <metadata
     id="metadata4415">
    <rdf:RDF>
      <cc:Work
         rdf:about="">
        <dc:format>image/svg+xml</dc:format>
        <dc:type
           rdf:resource="http://purl.org/dc/dcmitype/StillImage" />
        <dc:title />
      </cc:Work>
    </rdf:RDF>
  </metadata>
  <g
     inkscape:label="Layer 1"
     inkscape:groupmode="layer"
     id="layer1"
     transform="translate(-33.266033,-40.056152)">
    <g
       style="opacity:0.677;fill:none;fill-opacity:1;stroke:#000000;stroke-opacity:1"
       id="g8717"
       transform="matrix(0.7746262,0,0,0.7746262,-1976.8277,-83.86986)">
      <path
         inkscape:export-ydpi="90"
         inkscape:export-xdpi="90"
         sodipodi:nodetypes="cccccccccccccccccccccccccccccccccccccccc"
         id="path2453"
         d="m 2691.8824,418.48411 c -15.4763,-5.70581 -28.8289,-16.17531 -38.9189,-29.46851 -6.8623,-7.77437 -16.0307,-14.17039 -17.5089,-25.16286 -2.0197,-6.34818 -6.0845,-14.74444 -3.6586,-19.26635 -12.3325,-6.28666 -6.4675,-22.29704 -3.6564,-32.50729 4.9302,-8.86583 -5.5975,-18.05246 0.6083,-26.43004 8.745,-3.38118 0.9138,-12.21076 6.2939,-18.48771 3.9627,-6.50875 10.3552,-12.98222 18.4549,-13.83716 -0.824,-10.26681 9.1365,-15.68771 13.132,-24.24368 8.649,-7.46729 15.9995,-17.15206 27.9837,-18.92439 10.2259,-5.92071 22.3038,-7.12747 31.9097,-14.33052 9.2796,-6.36383 19.5198,-10.23491 30.6549,-11.78404 14.8844,-2.89631 29.5767,-6.4099 43.2969,-13.04482 24.7425,-4.11825 50.1421,-9.32672 75.1815,-6.16037 10.3122,3.8165 20.6242,-3.64118 31.2942,-2.81156 14.8798,-1.18345 29.4847,4.34257 44.2466,6.03615 12.3033,3.80839 24.8031,8.21523 36.5334,13.33463 5.7623,7.54202 16.9499,4.74775 23.0934,12.11971 9.1381,7.37091 21.6543,12.57971 26.5316,23.62606 0.5478,7.04125 9.9659,9.81982 14.4792,14.70047 12.0216,7.72472 20.1441,19.89261 28.303,31.20719 1.7693,6.23831 5.5026,13.81492 3.5182,18.89782 11.4833,10.06408 16.598,25.03771 24.9154,37.54234 1.4717,8.42843 7.6788,16.72615 5.5559,25.25381 6.1627,4.73689 6.8433,13.89891 8.9782,20.88544 -1.2491,10.143 -0.065,21.12612 -7.7008,29.06378 -3.8374,8.03516 -9.9474,13.80074 -17.8706,17.75535 -7.5653,4.58089 -17.4032,3.77546 -25.4812,0.72141 -19.8529,-6.01701 -40.6528,-5.88488 -60.9612,-9.33207 -11.0971,4.70005 -20.8729,11.9797 -32.894,14.50019 -11.187,3.56997 -22.8855,9.549 -34.7863,5.70287 0.2998,10.57572 -12.3121,9.97876 -19.875,11.38338 -14.457,2.87358 -29.3673,3.51856 -43.817,5.32121 -15.9587,8.7062 -33.2245,15.68345 -47.9989,26.16624 -6.2944,7.78783 -16.0909,12.46364 -26.1185,10.01071 -10.9666,-0.77651 -19.6804,-9.3579 -29.7612,-13.33259 -8.6196,-5.53869 -20.1854,-2.02205 -28.0784,-9.4674 -6.478,-3.13239 -11.0867,-9.76687 -14.5944,-15.60975 -4.0474,-5.43686 5.2886,-17.73343 -2.4303,-17.71489 -12.9514,-0.77092 -21.8622,0.47847 -38.8543,-2.31276 z"
         style="display:inline;opacity:0.50800003;fill:none;fill-opacity:1;fill-rule:evenodd;stroke:#000000;stroke-width:3.75;stroke-linecap:round;stroke-linejoin:round;stroke-miterlimit:4;stroke-dasharray:none;stroke-opacity:1"
         inkscape:connector-curvature="0" />
      <path
         inkscape:export-ydpi="90"
         inkscape:export-xdpi="90"
         id="path3230"
         d="m 2752.9967,439.69731 c 19.4086,-6.94971 24.6745,-29.40502 40.7996,-40.45612 11.9689,-8.24335 25.0471,-21.52574 40.9118,-15.39265 20.366,6.75063 42.574,-0.79217 58.5099,-14.11839 11.5269,-10.22187 26.6693,-15.47543 42.0225,-13.25101 17.7954,4.67703 21.7635,-12.83081 27.2521,-25.20911 6.8822,-13.48306 23.2473,-18.60893 26.8136,-34.42875 8.9096,-13.76907 14.5407,-29.36526 17.1663,-45.54388 0.2605,-11.91441 8.0008,-20.90484 15.4624,-29.35394 1.0919,-1.56355 2.0562,-3.22296 2.7928,-4.98478"
         style="display:inline;opacity:0.50800003;fill:none;fill-opacity:1;fill-rule:evenodd;stroke:#000000;stroke-width:2.5;stroke-linecap:round;stroke-linejoin:round;stroke-miterlimit:4;stroke-dasharray:none;stroke-opacity:1"
         inkscape:connector-curvature="0" />
      <path
         inkscape:export-ydpi="90"
         inkscape:export-xdpi="90"
         id="path3235"
         d="m 2791.3825,465.96129 c 10.6744,-7.36658 20.4592,-16.20614 27.7628,-26.97078 6.2948,-5.7432 15.4462,-4.00716 23.127,-5.86138 7.173,-0.167 13.7825,-3.14343 19.6346,-7.10219 5.1758,-4.24139 10.9059,0.57242 15.573,3.18968 5.2464,3.43046 10.3278,7.12402 15.928,9.97562"
         style="display:inline;opacity:0.50800003;fill:none;fill-opacity:1;fill-rule:evenodd;stroke:#000000;stroke-width:1.25;stroke-linecap:round;stroke-linejoin:round;stroke-miterlimit:4;stroke-dasharray:none;stroke-opacity:1"
         inkscape:connector-curvature="0" />
      <path
         inkscape:export-ydpi="90"
         inkscape:export-xdpi="90"
         sodipodi:nodetypes="cccccc"
         id="path3250"
         d="m 2733.2987,421.0095 c 8.7833,-20.2957 17.6053,-41.36924 36.7652,-54.19983 19.8928,-15.41055 43.3494,-33.77375 69.8919,-31.40004 25.9777,9.36548 30.5098,-22.3949 49.0532,-31.48088 16.2045,-9.15081 41.2019,2.62622 51.6554,-17.9367 8.9088,-17.62168 11.6007,-15.66712 16.2527,-21.42277"
         style="display:inline;opacity:0.50800003;fill:none;fill-opacity:1;fill-rule:evenodd;stroke:#000000;stroke-width:3.75;stroke-linecap:round;stroke-linejoin:round;stroke-miterlimit:4;stroke-dasharray:none;stroke-opacity:1"
         inkscape:connector-curvature="0" />
      <path
         inkscape:export-ydpi="90"
         inkscape:export-xdpi="90"
         sodipodi:nodetypes="cccc"
         id="path3255"
         d="m 2873.2048,318.47902 c -5.344,-20.04906 -12.9278,-32.55561 -8.1133,-53.36158 1.7664,-9.97804 13.3347,-30.30642 21.177,-36.57692 17.1857,-26.56771 17.0821,-20.35982 41.0451,-27.54994"
         style="display:inline;opacity:0.50800003;fill:none;fill-opacity:1;fill-rule:evenodd;stroke:#000000;stroke-width:2.5;stroke-linecap:round;stroke-linejoin:round;stroke-miterlimit:4;stroke-dasharray:none;stroke-opacity:1"
         inkscape:connector-curvature="0" />
      <path
         inkscape:export-ydpi="90"
         inkscape:export-xdpi="90"
         sodipodi:nodetypes="ccccc"
         id="path3264"
         d="m 3000.0675,273.29383 c -6.0202,-21.32609 -27.7424,-15.66065 -35.7977,-35.96021 -5.4561,-8.70526 -10.8347,-34.56767 -16.0733,-43.43053 -10.7228,-5.21641 -19.4545,-15.43335 -20.7192,-27.55385 -0.2448,-0.80786 -0.4896,-1.61572 -0.7344,-2.42358"
         style="display:inline;opacity:0.50800003;fill:none;fill-opacity:1;fill-rule:evenodd;stroke:#000000;stroke-width:1.25;stroke-linecap:round;stroke-linejoin:round;stroke-miterlimit:4;stroke-dasharray:none;stroke-opacity:1"
         inkscape:connector-curvature="0" />
      <path
         inkscape:export-ydpi="90"
         inkscape:export-xdpi="90"
         id="path3278"
         d="m 3014.6262,292.72014 c 3.1687,4.69474 6.7026,9.14211 9.6435,13.98986 1.3659,12.94291 5.3286,26.37988 0.9752,39.17877 -2.7724,9.25162 -6.2206,18.71164 -5.2812,28.53199 -3.0733,5.25318 0.5285,13.15459 6.6882,13.85477 5.4366,2.57063 12.92,3.26265 17.2838,-1.6733 6.6511,-5.72593 15.3238,-9.98554 24.3017,-8.85155 5.506,-0.28225 10.9201,-5.43814 9.5901,-11.21432 -0.1477,-1.58018 -0.5401,-3.12997 -1.0769,-4.62079"
         style="display:inline;opacity:0.50800003;fill:none;fill-opacity:1;fill-rule:evenodd;stroke:#000000;stroke-width:1.25;stroke-linecap:round;stroke-linejoin:round;stroke-miterlimit:4;stroke-dasharray:none;stroke-opacity:1"
         inkscape:connector-curvature="0" />
      <path
         inkscape:export-ydpi="90"
         inkscape:export-xdpi="90"
         id="path3306"
         d="m 3043.9206,351.81407 c 13.7417,-2.91692 27.4514,-6.05749 40.9112,-10.10153 3.6508,0.88033 8.084,0.63686 10.7162,3.78734 4.4206,3.4656 8.7109,7.24749 11.742,12.03023 5.0845,6.23125 8.8718,13.35219 12.375,20.55119 l 0.2611,0.50344 0.261,0.50344"
         style="display:inline;opacity:0.50800003;fill:none;fill-opacity:1;fill-rule:evenodd;stroke:#000000;stroke-width:2.5;stroke-linecap:round;stroke-linejoin:round;stroke-miterlimit:4;stroke-dasharray:none;stroke-opacity:1"
         inkscape:connector-curvature="0" />
      <path
         inkscape:export-ydpi="90"
         inkscape:export-xdpi="90"
         id="path3308"
         d="m 3083.8216,341.20747 c 2.0164,-6.79877 5.724,-14.15962 2.7599,-21.25385 -3.5026,-9.45846 -11.0705,-16.5822 -15.6124,-25.44903 -1.7688,-4.61005 -3.7611,-9.65224 -8.3352,-12.16283 -4.3417,-3.06255 -9.7821,-3.46722 -14.8669,-4.13402 -8.2291,-2.27825 -11.9302,-10.77852 -16.9784,-16.80233"
         style="display:inline;opacity:0.50800003;fill:none;fill-opacity:1;fill-rule:evenodd;stroke:#000000;stroke-width:1.25;stroke-linecap:round;stroke-linejoin:round;stroke-miterlimit:4;stroke-dasharray:none;stroke-opacity:1"
         inkscape:connector-curvature="0" />
      <path
         inkscape:export-ydpi="90"
         inkscape:export-xdpi="90"
         id="path3329"
         d="m 2999.4739,383.12877 c -6.7971,1.71149 -13.3907,4.3512 -20.3575,5.31012 -10.064,1.05063 -20.1799,1.75928 -30.3003,1.70724 -3.3703,-4.3e-4 -6.354,-1.87423 -8.5167,-4.34432 -3.3912,-3.74329 -6.1727,-7.9883 -9.5372,-11.75905 -0.8354,-1.0113 -1.6716,-2.02203 -2.504,-3.03579"
         style="display:inline;opacity:0.50800003;fill:none;fill-opacity:1;fill-rule:evenodd;stroke:#000000;stroke-width:1.25;stroke-linecap:round;stroke-linejoin:round;stroke-miterlimit:4;stroke-dasharray:none;stroke-opacity:1"
         inkscape:connector-curvature="0" />
      <path
         inkscape:export-ydpi="90"
         inkscape:export-xdpi="90"
         id="path3335"
         d="m 2934.8241,419.49431 c -9.689,-11.18599 -24.6628,-16.91512 -31.7979,-30.52189 -4.2534,-6.24957 -6.2734,-13.96946 -5.5777,-21.501"
         style="display:inline;opacity:0.50800003;fill:none;fill-opacity:1;fill-rule:evenodd;stroke:#000000;stroke-width:1.25;stroke-linecap:round;stroke-linejoin:round;stroke-miterlimit:4;stroke-dasharray:none;stroke-opacity:1"
         inkscape:connector-curvature="0" />
      <path
         inkscape:export-ydpi="90"
         inkscape:export-xdpi="90"
         id="path3337"
         d="m 2898.4587,413.43333 c 5.7426,-2.95021 13.0282,-4.18113 16.6675,-10.1015"
         style="display:inline;opacity:0.50800003;fill:none;fill-opacity:1;fill-rule:evenodd;stroke:#000000;stroke-width:1.25;stroke-linecap:round;stroke-linejoin:round;stroke-miterlimit:4;stroke-dasharray:none;stroke-opacity:1"
         inkscape:connector-curvature="0" />
      <path
         inkscape:export-ydpi="90"
         inkscape:export-xdpi="90"
         id="path3339"
         d="m 2979.7759,336.15669 c 11.2765,3.05949 25.7983,12.54149 15.6735,25.31145 -1.0763,2.1696 -2.4281,4.20805 -4.0567,6.00328"
         style="display:inline;opacity:0.50800003;fill:none;fill-opacity:1;fill-rule:evenodd;stroke:#000000;stroke-width:1.25;stroke-linecap:round;stroke-linejoin:round;stroke-miterlimit:4;stroke-dasharray:none;stroke-opacity:1"
         inkscape:connector-curvature="0" />
      <path
         inkscape:export-ydpi="90"
         inkscape:export-xdpi="90"
         id="path3341"
         d="m 2997.9587,346.25822 c 4.5457,-2.0203 9.0914,-4.04061 13.637,-6.06091"
         style="display:inline;opacity:0.50800003;fill:none;fill-opacity:1;fill-rule:evenodd;stroke:#000000;stroke-width:1.25;stroke-linecap:round;stroke-linejoin:round;stroke-miterlimit:4;stroke-dasharray:none;stroke-opacity:1"
         inkscape:connector-curvature="0" />
      <path
         inkscape:export-ydpi="90"
         inkscape:export-xdpi="90"
         id="path3343"
         d="m 3025.7379,321.50947 c -6.8292,2.63178 -13.565,5.50451 -20.2031,8.58631"
         style="display:inline;opacity:0.50800003;fill:none;fill-opacity:1;fill-rule:evenodd;stroke:#000000;stroke-width:1.25;stroke-linecap:round;stroke-linejoin:round;stroke-miterlimit:4;stroke-dasharray:none;stroke-opacity:1"
         inkscape:connector-curvature="0" />
      <path
         inkscape:export-ydpi="90"
         inkscape:export-xdpi="90"
         id="path3347"
         d="m 3007.0501,278.57801 c 10.6718,-10.28494 23.0964,-18.49975 35.6372,-26.30091 2.5834,-4.29499 2.6192,-9.47496 4.2638,-14.10522"
         style="display:inline;opacity:0.50800003;fill:none;fill-opacity:1;fill-rule:evenodd;stroke:#000000;stroke-width:1.25;stroke-linecap:round;stroke-linejoin:round;stroke-miterlimit:4;stroke-dasharray:none;stroke-opacity:1"
         inkscape:connector-curvature="0" />
      <path
         inkscape:export-ydpi="90"
         inkscape:export-xdpi="90"
         id="path3349"
         d="m 3077.7607,409.89781 c 12.6991,-7.85037 21.8388,-22.55843 18.6572,-37.83272 -0.4973,-3.83075 -1.4878,-7.60267 -2.9998,-11.15965"
         style="display:inline;opacity:0.50800003;fill:none;fill-opacity:1;fill-rule:evenodd;stroke:#000000;stroke-width:1.25;stroke-linecap:round;stroke-linejoin:round;stroke-miterlimit:4;stroke-dasharray:none;stroke-opacity:1"
         inkscape:connector-curvature="0" />
      <path
         inkscape:export-ydpi="90"
         inkscape:export-xdpi="90"
         id="path3351"
         d="m 2956.0374,350.80391 c 4.2338,3.62524 13.141,5.25079 11.6167,12.62689"
         style="display:inline;opacity:0.50800003;fill:none;fill-opacity:1;fill-rule:evenodd;stroke:#000000;stroke-width:1.25;stroke-linecap:round;stroke-linejoin:round;stroke-miterlimit:4;stroke-dasharray:none;stroke-opacity:1"
         inkscape:connector-curvature="0" />
      <path
         inkscape:export-ydpi="90"
         inkscape:export-xdpi="90"
         id="path3353"
         d="m 2967.6541,357.87498 c 2.1887,-1.01015 4.3773,-2.0203 6.566,-3.03046"
         style="display:inline;opacity:0.50800003;fill:none;fill-opacity:1;fill-rule:evenodd;stroke:#000000;stroke-width:1.25;stroke-linecap:round;stroke-linejoin:round;stroke-miterlimit:4;stroke-dasharray:none;stroke-opacity:1"
         inkscape:connector-curvature="0" />
      <path
         inkscape:export-ydpi="90"
         inkscape:export-xdpi="90"
         id="path3355"
         d="m 2846.4358,419.99937 c -9.6546,-3.39375 -20.3432,-13.68818 -15.1523,-24.74878"
         style="display:inline;opacity:0.50800003;fill:none;fill-opacity:1;fill-rule:evenodd;stroke:#000000;stroke-width:1.25;stroke-linecap:round;stroke-linejoin:round;stroke-miterlimit:4;stroke-dasharray:none;stroke-opacity:1"
         inkscape:connector-curvature="0" />
      <path
         inkscape:export-ydpi="90"
         inkscape:export-xdpi="90"
         id="path3357"
         d="m 2970.6846,418.9892 -7.0711,-8.08122"
         style="display:inline;opacity:0.50800003;fill:none;fill-opacity:1;fill-rule:evenodd;stroke:#000000;stroke-width:1.25;stroke-linecap:round;stroke-linejoin:round;stroke-miterlimit:4;stroke-dasharray:none;stroke-opacity:1"
         inkscape:connector-curvature="0" />
      <path
         inkscape:export-ydpi="90"
         inkscape:export-xdpi="90"
         sodipodi:nodetypes="ccc"
         d="m 3065.1338,326.05516 c 10e-4,-9.44923 -0.162,-32.73669 -15.1523,-26.76902 -10.7471,4.86235 -12.1617,20.30476 -21.2132,21.71827"
         style="display:inline;opacity:0.50800003;fill:none;fill-opacity:1;fill-rule:evenodd;stroke:#000000;stroke-width:1.25;stroke-linecap:round;stroke-linejoin:round;stroke-miterlimit:4;stroke-dasharray:none;stroke-opacity:1"
         id="path3345"
         inkscape:connector-curvature="0" />
      <path
         inkscape:export-ydpi="90"
         inkscape:export-xdpi="90"
         id="path3361"
         d="m 3067.6592,284.63891 1.5152,-13.63706 -3.5355,-12.62691 -2.5254,-10.10153"
         style="display:inline;opacity:0.50800003;fill:none;fill-opacity:1;fill-rule:evenodd;stroke:#000000;stroke-width:1.25;stroke-linecap:round;stroke-linejoin:round;stroke-miterlimit:4;stroke-dasharray:none;stroke-opacity:1"
         inkscape:connector-curvature="0" />
      <path
         inkscape:export-ydpi="90"
         inkscape:export-xdpi="90"
         id="path3363"
         d="m 3088.8724,324.03486 c 3.3672,-2.35702 6.7343,-4.71405 10.1015,-7.07107"
         style="display:inline;opacity:0.50800003;fill:none;fill-opacity:1;fill-rule:evenodd;stroke:#000000;stroke-width:1.25;stroke-linecap:round;stroke-linejoin:round;stroke-miterlimit:4;stroke-dasharray:none;stroke-opacity:1"
         inkscape:connector-curvature="0" />
      <path
         inkscape:export-ydpi="90"
         inkscape:export-xdpi="90"
         id="path3572"
         d="m 2733.2987,351.81407 c -5.6478,-2.4496 -11.572,-5.86669 -13.7998,-11.97306 -2.3718,-5.04295 -2.1073,-12.05846 -7.6296,-15.04102 -3.7838,-4.00476 -11.0028,-4.80478 -12.4537,-10.83026 -0.3159,-6.37853 -1.4461,-13.72872 -7.1643,-17.60612 -4.3574,-3.05532 -7.6042,-8.94917 -13.6161,-8.63465 -5.3962,0.10715 -10.562,6.13613 -15.803,3.19004 -6.1038,-4.05617 -8.9333,-11.18161 -12.2404,-17.41169 -2.3733,-5.34425 -3.0385,-11.9914 0.4943,-17.00531 0.4755,-0.8863 0.9598,-1.76829 1.4004,-2.67274"
         style="display:inline;opacity:0.50800003;fill:none;fill-opacity:1;fill-rule:evenodd;stroke:#000000;stroke-width:1.25;stroke-linecap:butt;stroke-linejoin:miter;stroke-miterlimit:4;stroke-dasharray:none;stroke-opacity:1"
         inkscape:connector-curvature="0" />
      <path
         inkscape:export-ydpi="90"
         inkscape:export-xdpi="90"
         id="path3702"
         d="m 2693.3977,377.57298 c -3.1988,-3.87226 -6.3977,-7.74453 -9.5965,-11.61679 -0.6734,-3.03046 -1.3468,-6.06091 -2.0203,-9.09137 1.2212,-6.11146 3.3206,-12.17072 7.0781,-17.19908 0.979,-2.39828 -0.6166,-5.65427 -3.307,-5.90674 -2.5306,0.46169 -5.2582,1.6761 -7.76,0.44896 -5.0502,-1.15869 -10.0015,-3.85128 -12.8385,-8.31358 -0.4305,-0.47205 -0.8782,-0.92919 -1.3553,-1.35445"
         style="display:inline;opacity:0.50800003;fill:none;fill-opacity:1;fill-rule:evenodd;stroke:#000000;stroke-width:1.25;stroke-linecap:butt;stroke-linejoin:miter;stroke-miterlimit:4;stroke-dasharray:none;stroke-opacity:1"
         inkscape:connector-curvature="0" />
      <path
         inkscape:export-ydpi="90"
         inkscape:export-xdpi="90"
         id="path3762"
         d="m 2674.2048,309.38765 c -4.0406,-0.67344 -8.0812,-1.34687 -12.1218,-2.0203 -3.0305,1.34688 -6.061,2.69375 -9.0914,4.04062 -1.1758,3.04909 -3.9881,5.8495 -3.1666,9.36355 0.6373,6.56495 1.2581,13.70026 5.6501,18.98317 3.8678,4.31303 6.8279,9.37494 9.0579,14.70115 1.5452,2.57118 1.8552,5.74872 1.1038,8.62257 -0.019,0.28535 -0.027,0.57157 -0.018,0.85748"
         style="display:inline;opacity:0.50800003;fill:none;fill-opacity:1;fill-rule:evenodd;stroke:#000000;stroke-width:1.25;stroke-linecap:butt;stroke-linejoin:miter;stroke-miterlimit:4;stroke-dasharray:none;stroke-opacity:1"
         inkscape:connector-curvature="0" />
      <path
         inkscape:export-ydpi="90"
         inkscape:export-xdpi="90"
         id="path3826"
         d="m 2725.7226,206.35208 c -3.6043,2.88628 -7.2945,6.49814 -12.2113,6.60335 -6.7494,1.4692 -12.4142,5.77267 -17.3522,10.38979 -6.0222,3.61216 -13.5705,2.19398 -19.7627,5.28452 -4.5085,2.76275 -8.358,8.22685 -6.6409,13.69456 1.1856,3.18708 4.7346,5.03226 5.1764,8.58409 0.7036,3.43812 2.684,6.59842 6.0456,7.91851 0.4722,0.30609 0.9247,0.64953 1.3085,1.06327"
         style="display:inline;opacity:0.50800003;fill:none;fill-opacity:1;fill-rule:evenodd;stroke:#000000;stroke-width:1.25;stroke-linecap:butt;stroke-linejoin:miter;stroke-miterlimit:4;stroke-dasharray:none;stroke-opacity:1"
         inkscape:connector-curvature="0" />
      <path
         inkscape:export-ydpi="90"
         inkscape:export-xdpi="90"
         id="path3565"
         d="m 2800.9789,227.06021 c 2.7009,-2.7302 5.4607,-5.40215 8.1249,-8.16856 2.8211,-5.72106 5.6082,-11.48673 9.1995,-16.77616 1.2057,-2.08014 2.4512,-4.24522 4.5347,-5.57353 2.6468,-2.11745 5.2936,-4.23488 7.9404,-6.35232"
         style="display:inline;opacity:0.50800003;fill:none;fill-opacity:1;fill-rule:evenodd;stroke:#000000;stroke-width:1.25;stroke-linecap:butt;stroke-linejoin:miter;stroke-miterlimit:4;stroke-dasharray:none;stroke-opacity:1"
         inkscape:connector-curvature="0" />
      <path
         inkscape:export-ydpi="90"
         inkscape:export-xdpi="90"
         id="path3689"
         d="m 2698.9535,364.94603 c 12.2168,-1.80766 24.457,-3.63518 36.806,-4.22305 2.4539,-0.10141 5.0124,-0.14945 7.2207,-1.36682 2.4971,-0.9988 4.9941,-1.99761 7.4911,-2.99641"
         style="display:inline;opacity:0.50800003;fill:none;fill-opacity:1;fill-rule:evenodd;stroke:#000000;stroke-width:1.25;stroke-linecap:butt;stroke-linejoin:miter;stroke-miterlimit:4;stroke-dasharray:none;stroke-opacity:1"
         inkscape:connector-curvature="0" />
      <path
         inkscape:export-ydpi="90"
         inkscape:export-xdpi="90"
         id="path4136"
         d="m 2845.9307,291.20491 0,0 c 2.0203,25.75889 3.5356,26.76904 3.5356,26.76904"
         style="display:inline;opacity:0.50800003;fill:none;fill-opacity:1;fill-rule:evenodd;stroke:#000000;stroke-width:1.25;stroke-linecap:butt;stroke-linejoin:miter;stroke-miterlimit:4;stroke-dasharray:none;stroke-opacity:1"
         inkscape:connector-curvature="0" />
      <path
         inkscape:export-ydpi="90"
         inkscape:export-xdpi="90"
         id="path4138"
         d="m 2794.4129,266.96124 c 9.0914,19.1929 4.0407,24.24367 4.0407,24.24367"
         style="display:inline;opacity:0.50800003;fill:none;fill-opacity:1;fill-rule:evenodd;stroke:#000000;stroke-width:1.25;stroke-linecap:butt;stroke-linejoin:miter;stroke-miterlimit:4;stroke-dasharray:none;stroke-opacity:1"
         inkscape:connector-curvature="0" />
      <path
         inkscape:export-ydpi="90"
         inkscape:export-xdpi="90"
         id="path4140"
         d="m 2908.5243,217.93294 c 17.1726,14.64721 13.132,30.80965 13.132,30.80965"
         style="display:inline;opacity:0.50800003;fill:none;fill-opacity:1;fill-rule:evenodd;stroke:#000000;stroke-width:1.25;stroke-linecap:butt;stroke-linejoin:miter;stroke-miterlimit:4;stroke-dasharray:none;stroke-opacity:1"
         inkscape:connector-curvature="0" />
      <path
         inkscape:export-ydpi="90"
         inkscape:export-xdpi="90"
         sodipodi:nodetypes="cc"
         id="path4142"
         d="m 2896.9793,266.80279 c 1.9993,24.61132 33.5294,28.47861 33.5294,28.47861"
         style="display:inline;opacity:0.50800003;fill:none;fill-opacity:1;fill-rule:evenodd;stroke:#000000;stroke-width:1.25;stroke-linecap:butt;stroke-linejoin:miter;stroke-miterlimit:4;stroke-dasharray:none;stroke-opacity:1"
         inkscape:connector-curvature="0" />
      <path
         inkscape:export-ydpi="90"
         inkscape:export-xdpi="90"
         id="path4144"
         d="m 2679.2556,403.83691 c 15.1522,-17.17259 40.4061,-1.01015 40.4061,-1.01015"
         style="display:inline;opacity:0.50800003;fill:none;fill-opacity:1;fill-rule:evenodd;stroke:#000000;stroke-width:1.25;stroke-linecap:butt;stroke-linejoin:miter;stroke-miterlimit:4;stroke-dasharray:none;stroke-opacity:1"
         inkscape:connector-curvature="0" />
      <path
         inkscape:export-ydpi="90"
         inkscape:export-xdpi="90"
         id="path3419"
         d="m 2830.2733,382.6237 c -8.4779,-7.98855 -9.7671,-21.71647 -4.5456,-31.81979"
         style="display:inline;opacity:0.50800003;fill:none;fill-opacity:1;fill-rule:evenodd;stroke:#000000;stroke-width:1.25;stroke-linecap:butt;stroke-linejoin:miter;stroke-miterlimit:4;stroke-dasharray:none;stroke-opacity:1"
         inkscape:connector-curvature="0" />
      <path
         inkscape:export-ydpi="90"
         inkscape:export-xdpi="90"
         id="path3421"
         d="m 2859.0627,336.15669 c -2.893,9.19446 -8.3842,17.4675 -10.1489,27.03314 -1.0585,1.97533 -3.114,3.08489 -4.4983,4.78668"
         style="display:inline;opacity:0.50800003;fill:none;fill-opacity:1;fill-rule:evenodd;stroke:#000000;stroke-width:1.25;stroke-linecap:butt;stroke-linejoin:miter;stroke-miterlimit:4;stroke-dasharray:none;stroke-opacity:1"
         inkscape:connector-curvature="0" />
      <path
         inkscape:export-ydpi="90"
         inkscape:export-xdpi="90"
         id="path3423"
         d="m 2898.9637,330.60084 c 7.3963,1.53264 14.9712,4.26438 22.5889,2.54872 7.6408,1.06674 9.48,-8.12588 12.2614,-13.15532"
         style="display:inline;opacity:0.50800003;fill:none;fill-opacity:1;fill-rule:evenodd;stroke:#000000;stroke-width:1.25;stroke-linecap:butt;stroke-linejoin:miter;stroke-miterlimit:4;stroke-dasharray:none;stroke-opacity:1"
         inkscape:connector-curvature="0" />
      <path
         inkscape:export-ydpi="90"
         inkscape:export-xdpi="90"
         id="path3425"
         d="m 2937.3495,306.35719 c 7.8701,1.66863 16.3396,4.00682 24.1808,0.94447 6.5629,-0.26698 12.3191,3.39902 18.2456,5.62154"
         style="display:inline;opacity:0.50800003;fill:none;fill-opacity:1;fill-rule:evenodd;stroke:#000000;stroke-width:1.25;stroke-linecap:butt;stroke-linejoin:miter;stroke-miterlimit:4;stroke-dasharray:none;stroke-opacity:1"
         inkscape:connector-curvature="0" />
      <path
         inkscape:export-ydpi="90"
         inkscape:export-xdpi="90"
         id="path3427"
         d="m 2970.1795,225.54498 c 3.8722,-0.33672 7.7445,-0.67344 11.6167,-1.01016 5.6065,-4.04239 11.3201,-7.93863 17.1726,-11.61676"
         style="display:inline;opacity:0.50800003;fill:none;fill-opacity:1;fill-rule:evenodd;stroke:#000000;stroke-width:1.25;stroke-linecap:butt;stroke-linejoin:miter;stroke-miterlimit:4;stroke-dasharray:none;stroke-opacity:1"
         inkscape:connector-curvature="0" />
      <path
         inkscape:export-ydpi="90"
         inkscape:export-xdpi="90"
         id="path3429"
         d="m 3020.182,217.46375 c -6.8786,-7.90938 -17.1205,-11.42807 -26.7643,-14.65858 -7.3748,-3.05254 -16.2853,-4.23331 -23.531,-0.18865 -2.7747,1.39342 -5.4175,3.05311 -8.2935,4.24063"
         style="display:inline;opacity:0.50800003;fill:none;fill-opacity:1;fill-rule:evenodd;stroke:#000000;stroke-width:1.25;stroke-linecap:butt;stroke-linejoin:miter;stroke-miterlimit:4;stroke-dasharray:none;stroke-opacity:1"
         inkscape:connector-curvature="0" />
      <path
         inkscape:export-ydpi="90"
         inkscape:export-xdpi="90"
         id="path3431"
         d="m 2980.281,199.7861 c -1.2178,-3.29373 0.8583,-7.34829 4.223,-8.32372 2.5554,-1.8148 4.4374,-4.38746 6.8887,-6.32349"
         style="display:inline;opacity:0.50800003;fill:none;fill-opacity:1;fill-rule:evenodd;stroke:#000000;stroke-width:1.25;stroke-linecap:butt;stroke-linejoin:miter;stroke-miterlimit:4;stroke-dasharray:none;stroke-opacity:1"
         inkscape:connector-curvature="0" />
      <path
         inkscape:export-ydpi="90"
         inkscape:export-xdpi="90"
         id="path3433"
         d="m 2900.984,168.47135 c 7.4885,1.75054 12.4582,15.34259 1.6395,15.75925 -9.2043,1.6321 -18.7214,3.0458 -26.593,8.51165 -6.3113,3.97534 -15.415,9.12624 -13.8837,17.94994 4.3876,6.29475 0.6667,12.35042 -6.4362,13.81215 -7.0648,5.37012 -9.661,14.37052 -11.829,22.75539 -3.715,7.27745 -6.5359,16.40683 -13.6889,20.85325 -9.7585,3.82129 -7.4635,14.85586 -4.6096,22.29824 0.256,9.64001 -10.1174,12.64206 -14.115,19.68608 -1.5529,7.9671 -7.8952,12.16979 -13.6312,17.02696 -6.6097,4.86634 -1.1997,12.05084 3.7989,15.54724 0.7598,0.56772 1.5528,1.09098 2.3736,1.5664"
         style="display:inline;opacity:0.50800003;fill:none;fill-opacity:1;fill-rule:evenodd;stroke:#000000;stroke-width:1.25;stroke-linecap:butt;stroke-linejoin:miter;stroke-miterlimit:4;stroke-dasharray:none;stroke-opacity:1"
         inkscape:connector-curvature="0" />
      <path
         inkscape:export-ydpi="90"
         inkscape:export-xdpi="90"
         id="path3438"
         d="m 2864.6185,169.48151 c -10.5643,1.77902 -14.5466,13.28171 -16.311,22.47543 -6.4027,6.45616 -8.754,15.97623 -8.7633,24.11814 -5.2398,5.81871 -16.2259,10.17069 -13.5155,19.75777 1.4946,11.85452 -14.1228,11.47977 -22.1287,13.18412 -8.4536,-0.13086 -20.2787,-2.79548 -24.8958,6.62756 -4.6571,9.74643 0,20.63528 -1.2161,30.88612 -1.7295,15.24056 -11.5177,28.24043 -12.9574,43.60356 -1.5145,10.88869 -0.6817,21.94848 0.7929,32.79152"
         style="display:inline;opacity:0.50800003;fill:none;fill-opacity:1;fill-rule:evenodd;stroke:#000000;stroke-width:2.5;stroke-linecap:butt;stroke-linejoin:miter;stroke-miterlimit:4;stroke-dasharray:none;stroke-opacity:1"
         inkscape:connector-curvature="0" />
      <path
         inkscape:export-ydpi="90"
         inkscape:export-xdpi="90"
         id="path3446"
         d="m 2758.5525,340.19731 c -1.3066,-10.79557 -3.5147,-21.85352 -1.0585,-32.65623 0.6997,-6.15207 0.1335,-12.37222 -0.8993,-18.45314 -1.3894,-4.11898 -4.5325,-7.28188 -6.6285,-11.01502"
         style="display:inline;opacity:0.50800003;fill:none;fill-opacity:1;fill-rule:evenodd;stroke:#000000;stroke-width:1.25;stroke-linecap:butt;stroke-linejoin:miter;stroke-miterlimit:4;stroke-dasharray:none;stroke-opacity:1"
         inkscape:connector-curvature="0" />
      <path
         inkscape:export-ydpi="90"
         inkscape:export-xdpi="90"
         id="path3490"
         d="m 2827.2429,172.51196 c -0.4734,4.34553 -5.4232,5.53608 -9.0674,5.78255 -10.0707,1.06112 -19.3408,5.53221 -29.0763,8.02998 -6.7458,2.35837 -12.9696,5.91935 -19.435,8.9159 -3.1988,5.05077 -6.3976,10.10154 -9.5964,15.15231 -0.07,4.21753 0.8027,9.74694 5.4647,11.19195 4.7023,1.97775 9.2344,4.32818 13.883,6.42443 4.9535,4.3944 7.2394,10.8192 10.6673,16.31994 0.7749,1.48059 1.5398,2.96637 2.3098,4.44945"
         style="display:inline;opacity:0.50800003;fill:none;fill-opacity:1;fill-rule:evenodd;stroke:#000000;stroke-width:1.25;stroke-linecap:butt;stroke-linejoin:miter;stroke-miterlimit:4;stroke-dasharray:none;stroke-opacity:1"
         inkscape:connector-curvature="0" />
      <path
         inkscape:export-ydpi="90"
         inkscape:export-xdpi="90"
         id="path3502"
         d="m 2776.7353,258.88001 c -3.3566,-2.2488 -7.1033,-4.57849 -11.3179,-4.2088 -4.0806,-0.45038 -8.1477,0.54849 -11.866,2.16708 -5.047,1.55756 -10.0316,3.50848 -14.3425,6.61349 -3.0771,1.7262 -5.6751,4.13753 -7.9554,6.80044 -2.4474,2.36116 -4.7356,5.03199 -5.73,8.34945 -0.8512,2.51667 -2.7259,4.89885 -2.1864,7.66046 0.096,3.74666 0.1162,7.69248 2.0604,11.03165 1.1185,2.68442 2.237,5.36883 3.3555,8.05325"
         style="display:inline;opacity:0.50800003;fill:none;fill-opacity:1;fill-rule:evenodd;stroke:#000000;stroke-width:1.25;stroke-linecap:butt;stroke-linejoin:miter;stroke-miterlimit:4;stroke-dasharray:none;stroke-opacity:1"
         inkscape:connector-curvature="0" />
      <path
         inkscape:export-ydpi="90"
         inkscape:export-xdpi="90"
         id="path3509"
         d="m 2721.6819,285.64906 c -4.9472,0.90583 -11.3153,-1.43222 -12.3763,-6.84923 -2.9458,-5.14946 -1.7389,-12.51539 -7.1017,-16.2292 -6.0282,-1.18937 -9.949,-7.87262 -8.341,-13.74925 1.2296,-7.30646 8.3406,-11.1287 13.973,-14.837 9.3574,-5.6951 20,-9.15552 28.735,-15.88938 4.6194,-4.0163 -0.2001,-10.24223 2.0152,-14.87965 3.355,-5.05288 9.9876,-5.38502 15.0752,-7.73712 5.2902,-2.04286 11.477,-3.31397 16.7498,-0.50909 l 0.7683,0.27125"
         style="display:inline;opacity:0.50800003;fill:none;fill-opacity:1;fill-rule:evenodd;stroke:#000000;stroke-width:1.25;stroke-linecap:butt;stroke-linejoin:miter;stroke-miterlimit:4;stroke-dasharray:none;stroke-opacity:1"
         inkscape:connector-curvature="0" />
      <path
         inkscape:export-ydpi="90"
         inkscape:export-xdpi="90"
         sodipodi:nodetypes="ccccc"
         id="path3522"
         d="m 2747.8085,216.24439 c -0.6598,4.58186 -7.1083,8.43869 -8.4358,14.4558 2.2519,10.49087 -1.9464,11.10291 -12.3346,11.08523 -3.9569,1.11768 -5.8701,5.20815 -7.0899,8.78933 -1.3253,3.81712 -1.7801,7.85653 -2.3069,11.84082"
         style="display:inline;opacity:0.50800003;fill:none;fill-opacity:1;fill-rule:evenodd;stroke:#000000;stroke-width:1.25;stroke-linecap:butt;stroke-linejoin:miter;stroke-miterlimit:4;stroke-dasharray:none;stroke-opacity:1"
         inkscape:connector-curvature="0" />
      <path
         inkscape:export-ydpi="90"
         inkscape:export-xdpi="90"
         id="path3580"
         d="m 2775.22,225.03989 c 0.1926,-4.68211 1.2925,-9.44759 4.9649,-12.64621 2.3146,-2.42948 3.9353,-5.44991 4.0782,-8.83072 l 0.039,-0.19501 0.01,-0.0463"
         style="display:inline;opacity:0.50800003;fill:none;fill-opacity:1;fill-rule:evenodd;stroke:#000000;stroke-width:1px;stroke-linecap:butt;stroke-linejoin:miter;stroke-opacity:1"
         inkscape:connector-curvature="0" />
    </g>
    <path
       style="fill:none;fill-rule:evenodd;stroke:#00aad4;stroke-width:4.05144167;stroke-linecap:butt;stroke-linejoin:miter;stroke-miterlimit:4;stroke-dasharray:none;stroke-opacity:1"
       d="m 35.2172,168.31611 32.4115,-116.14133 5.4019,145.8519 18.9067,-48.6173 13.5049,35.11249 27.0095,-59.42114 13.5049,40.51442 16.2057,-45.91634 10.8039,72.92595 29.7106,-116.14133 5.4019,91.83268 21.6077,-45.91634 21.6077,56.72018 24.3086,-75.62691 16.2058,43.21538 27.0096,-32.41153 13.5048,51.31826 29.7106,-102.63652 24.3086,97.23459 18.9068,-43.21538 13.5048,40.51443 13.5047,-35.1125 40.1306,0"
       id="path8715"
       inkscape:connector-curvature="0"
       inkscape:export-xdpi="90"
       inkscape:export-ydpi="90"
       sodipodi:nodetypes="ccccccccccccccccccccccc" />
    <text
       xml:space="preserve"
       style="font-style:normal;font-variant:normal;font-weight:normal;font-stretch:normal;font-size:112.5px;line-height:125%;font-family:'Roboto Condensed';-inkscape-font-specification:'Roboto Condensed, Normal';text-align:start;letter-spacing:0px;word-spacing:0px;writing-mode:lr-tb;text-anchor:start;fill:#00aad4;fill-opacity:1;stroke:none;stroke-width:1px;stroke-linecap:butt;stroke-linejoin:miter;stroke-opacity:1"
       x="465.02573"
       y="154.6377"
       id="text8769"
       sodipodi:linespacing="125%"><tspan
         sodipodi:role="line"
         id="tspan8771"
         x="465.02573"
         y="154.6377">eHIT</tspan></text>
  </g>
</svg>
