G04 Layer_Color=8388736*
%FSAX25Y25*%
%MOIN*%
G70*
G01*
G75*
%ADD17R,0.04737X0.05131*%
%ADD18R,0.05131X0.04737*%
%ADD19C,0.06706*%
%ADD20C,0.06800*%
%ADD21C,0.15800*%
%ADD22C,0.05800*%
D17*
X0229100Y0315953D02*
D03*
Y0322646D02*
D03*
X0380500Y0290947D02*
D03*
Y0284254D02*
D03*
X0380800Y0275346D02*
D03*
Y0268653D02*
D03*
X0378700Y0255346D02*
D03*
Y0248654D02*
D03*
X0379500Y0301954D02*
D03*
Y0308646D02*
D03*
X0320900Y0233353D02*
D03*
Y0240047D02*
D03*
X0321200Y0250654D02*
D03*
Y0257347D02*
D03*
X0321400Y0267054D02*
D03*
Y0273746D02*
D03*
X0321600Y0283554D02*
D03*
Y0290247D02*
D03*
X0321500Y0300054D02*
D03*
Y0306747D02*
D03*
X0375000Y0204453D02*
D03*
Y0211146D02*
D03*
X0375100Y0189753D02*
D03*
Y0196447D02*
D03*
X0375200Y0175054D02*
D03*
Y0181746D02*
D03*
X0375000Y0158153D02*
D03*
Y0164847D02*
D03*
X0374900Y0143553D02*
D03*
Y0150247D02*
D03*
X0229000Y0300354D02*
D03*
Y0307047D02*
D03*
D18*
X0370547Y0230400D02*
D03*
X0363854D02*
D03*
X0357753Y0323300D02*
D03*
X0364446D02*
D03*
X0347553Y0230300D02*
D03*
X0354246D02*
D03*
X0343454Y0218400D02*
D03*
X0350147D02*
D03*
X0323253Y0214100D02*
D03*
X0329946D02*
D03*
X0288653Y0319100D02*
D03*
X0295346D02*
D03*
X0252753Y0281300D02*
D03*
X0259447D02*
D03*
X0252554Y0270500D02*
D03*
X0259246D02*
D03*
D19*
X0361800Y0142500D02*
D03*
Y0152500D02*
D03*
Y0162500D02*
D03*
Y0172500D02*
D03*
Y0182500D02*
D03*
Y0192500D02*
D03*
Y0202500D02*
D03*
X0331800D02*
D03*
Y0192500D02*
D03*
Y0182500D02*
D03*
Y0172500D02*
D03*
Y0162500D02*
D03*
Y0152500D02*
D03*
Y0142500D02*
D03*
X0338200Y0307600D02*
D03*
Y0297600D02*
D03*
Y0287600D02*
D03*
Y0277600D02*
D03*
Y0267600D02*
D03*
Y0257600D02*
D03*
Y0247600D02*
D03*
X0368200D02*
D03*
Y0257600D02*
D03*
Y0267600D02*
D03*
Y0277600D02*
D03*
Y0287600D02*
D03*
Y0297600D02*
D03*
Y0307600D02*
D03*
X0241100Y0293300D02*
D03*
Y0303300D02*
D03*
Y0313300D02*
D03*
Y0323300D02*
D03*
X0271100Y0313300D02*
D03*
Y0323300D02*
D03*
Y0293300D02*
D03*
Y0303300D02*
D03*
X0241400Y0230200D02*
D03*
Y0240200D02*
D03*
Y0250200D02*
D03*
Y0260200D02*
D03*
X0271400Y0230200D02*
D03*
Y0240200D02*
D03*
Y0250200D02*
D03*
Y0260200D02*
D03*
D20*
X0286400Y0176700D02*
D03*
Y0186700D02*
D03*
Y0196700D02*
D03*
Y0206700D02*
D03*
Y0216700D02*
D03*
Y0166700D02*
D03*
Y0156700D02*
D03*
Y0146700D02*
D03*
Y0136700D02*
D03*
Y0126700D02*
D03*
X0289200Y0305200D02*
D03*
Y0295200D02*
D03*
Y0285200D02*
D03*
Y0275200D02*
D03*
Y0265200D02*
D03*
Y0255200D02*
D03*
X0245000Y0346500D02*
D03*
X0237100D02*
D03*
X0274100D02*
D03*
X0282000D02*
D03*
X0193700Y0280500D02*
D03*
Y0290500D02*
D03*
Y0300500D02*
D03*
X0203700Y0280500D02*
D03*
Y0290500D02*
D03*
Y0300500D02*
D03*
X0309900Y0160300D02*
D03*
Y0150300D02*
D03*
Y0200300D02*
D03*
Y0210300D02*
D03*
Y0230300D02*
D03*
Y0220300D02*
D03*
Y0250300D02*
D03*
Y0240300D02*
D03*
Y0270300D02*
D03*
Y0260300D02*
D03*
Y0290300D02*
D03*
Y0280300D02*
D03*
Y0300300D02*
D03*
Y0170300D02*
D03*
X0389900Y0160300D02*
D03*
X0309900Y0190300D02*
D03*
Y0180300D02*
D03*
X0389900Y0170300D02*
D03*
Y0150300D02*
D03*
Y0180300D02*
D03*
Y0250300D02*
D03*
Y0240300D02*
D03*
Y0260300D02*
D03*
Y0200300D02*
D03*
Y0190300D02*
D03*
Y0230300D02*
D03*
Y0210300D02*
D03*
Y0220300D02*
D03*
D21*
X0201800Y0356800D02*
D03*
X0383200Y0357100D02*
D03*
X0200800Y0130900D02*
D03*
D22*
X0320900Y0173700D02*
D03*
X0220900Y0307800D02*
D03*
X0322300Y0197200D02*
D03*
X0379300Y0234300D02*
D03*
X0298700Y0235500D02*
D03*
X0374400Y0134800D02*
D03*
X0288600Y0230900D02*
D03*
M02*
