M48
;Layer_Color=9474304
;FILE_FORMAT=2:4
INCH
;TYPE=PLATED
T1F00S00C0.0280
T2F00S00C0.0308
T3F00S00C0.0350
T4F00S00C0.0358
T5F00S00C0.1250
%
T01
X037440Y013480
X032090Y017370
X032230Y019720
X037930Y023430
X029870Y023550
X028860Y023090
X022090Y030780
T02
X024140Y023020
Y024020
Y025020
Y026020
X027140
Y025020
Y024020
Y023020
X027110Y029330
Y030330
X024110
Y029330
Y031330
Y032330
X027110
Y031330
T03
X028640Y012670
Y013670
Y014670
X030990Y015030
X038990
Y016030
Y017030
Y018030
Y019030
Y020030
Y021030
Y022030
Y023030
Y024030
Y025030
Y026030
X030990
Y025030
Y024030
Y023030
Y022030
Y021030
Y020030
Y019030
Y018030
Y017030
Y016030
X028640Y015670
Y016670
Y017670
Y018670
Y019670
Y020670
Y021670
X028920Y025520
Y026520
Y027520
Y028520
Y029520
Y030520
X030990Y030030
Y029030
Y028030
Y027030
X020370Y028050
X019370
Y029050
Y030050
X020370
Y029050
X023710Y034650
X024500
X027410
X028200
T04
X033180Y014250
Y015250
X036180Y015250
Y014250
Y016250
Y017250
Y018250
Y019250
Y020250
X033180
Y019250
Y018250
Y017250
Y016250
X033820Y024760
Y025760
Y026760
Y027760
Y028760
Y029760
Y030760
X036820Y030760
Y029760
Y028760
Y027760
Y026760
Y025760
Y024760
T05
X020080Y013090
X020180Y035680
X038320Y035710
M30
