G04 Layer_Physical_Order=2*
G04 Layer_Color=16711680*
%FSAX25Y25*%
%MOIN*%
G70*
G01*
G75*
%ADD10R,0.04331X0.03937*%
%ADD11R,0.03937X0.04331*%
%ADD12C,0.01000*%
%ADD13C,0.06000*%
%ADD14C,0.05906*%
%ADD15C,0.15000*%
%ADD16C,0.05000*%
D10*
X0349247Y0166100D02*
D03*
X0342553D02*
D03*
D11*
X0320700Y0175847D02*
D03*
Y0169153D02*
D03*
X0346000Y0196447D02*
D03*
Y0189753D02*
D03*
Y0182546D02*
D03*
Y0175854D02*
D03*
D12*
X0275700Y0137400D02*
X0286400Y0126700D01*
X0275700Y0137400D02*
Y0218000D01*
X0288600Y0230900D01*
X0314054Y0175800D02*
X0320700Y0169153D01*
X0308036Y0175800D02*
X0314054D01*
X0305400Y0178436D02*
X0308036Y0175800D01*
X0305400Y0178436D02*
Y0182164D01*
X0290864Y0196700D02*
X0305400Y0182164D01*
X0286400Y0196700D02*
X0290864D01*
X0374400Y0134800D02*
X0383600D01*
X0394400Y0145600D01*
Y0232164D01*
Y0231000D02*
Y0279200D01*
X0386000Y0287600D02*
X0394400Y0279200D01*
X0368200Y0287600D02*
X0386000D01*
X0258100Y0263500D02*
X0271400Y0250200D01*
X0258100Y0263500D02*
Y0286300D01*
X0241100Y0303300D02*
X0258100Y0286300D01*
X0284000Y0250200D02*
X0298700Y0235500D01*
X0271400Y0250200D02*
X0284000D01*
X0379300Y0234300D02*
Y0266500D01*
X0368200Y0277600D02*
X0379300Y0266500D01*
X0322300Y0251700D02*
X0338200Y0267600D01*
X0322300Y0197200D02*
Y0251700D01*
X0286400Y0166700D02*
X0297300Y0155800D01*
X0311764D01*
X0313164Y0157200D01*
X0333653D01*
X0342553Y0166100D01*
X0276300Y0122200D02*
X0331500D01*
X0272200Y0126300D02*
X0276300Y0122200D01*
X0272200Y0126300D02*
Y0178600D01*
X0331500Y0122200D02*
X0361800Y0152500D01*
X0220900Y0229900D02*
X0272200Y0178600D01*
X0220900Y0229900D02*
Y0307800D01*
X0331800Y0152500D02*
X0335647D01*
X0349247Y0166100D01*
X0356000Y0178300D02*
X0361800Y0172500D01*
X0356000Y0178300D02*
Y0259800D01*
X0338200Y0277600D02*
X0356000Y0259800D01*
X0309900Y0270300D02*
X0312600Y0267600D01*
X0338200D01*
X0289200Y0255200D02*
X0304300Y0270300D01*
X0309900D01*
X0289200Y0265200D02*
Y0268836D01*
X0309900Y0289536D01*
Y0290300D01*
X0330900Y0284900D02*
X0338200Y0277600D01*
X0330900Y0284900D02*
Y0330800D01*
X0310700Y0351000D02*
X0330900Y0330800D01*
X0272236Y0351000D02*
X0310700D01*
X0269600Y0348364D02*
X0272236Y0351000D01*
X0269600Y0344636D02*
Y0348364D01*
Y0344636D02*
X0271100Y0343136D01*
Y0323300D02*
Y0343136D01*
X0235200Y0236400D02*
X0241400Y0230200D01*
X0235200Y0236400D02*
Y0305600D01*
X0238447Y0308847D01*
X0245553D01*
X0260005Y0323300D01*
X0271100D01*
X0219400Y0307800D02*
X0220900D01*
X0275553Y0268847D02*
X0289200Y0255200D01*
X0275553Y0268847D02*
Y0325144D01*
X0274100Y0326597D02*
X0275553Y0325144D01*
X0274100Y0326597D02*
Y0346500D01*
X0368200Y0287600D02*
X0373700Y0293100D01*
Y0302100D01*
X0368200Y0307600D02*
X0373700Y0302100D01*
X0331800Y0202500D02*
X0339947D01*
X0346000Y0196447D01*
X0343400Y0189453D02*
X0346100D01*
X0341247Y0187300D02*
X0343400Y0189453D01*
X0341247Y0187300D02*
X0346000Y0182546D01*
X0325500Y0187300D02*
X0341247D01*
X0320700Y0182500D02*
X0325500Y0187300D01*
X0320700Y0175847D02*
Y0182500D01*
X0327354Y0162500D02*
X0331800D01*
X0320700Y0169153D02*
X0327354Y0162500D01*
X0346000Y0175854D02*
X0349247Y0172607D01*
Y0166100D02*
Y0172607D01*
X0337500Y0171153D02*
X0342553Y0166100D01*
X0337500Y0171153D02*
Y0176800D01*
X0331800Y0182500D02*
X0337500Y0176800D01*
D13*
X0286400Y0176700D02*
D03*
Y0186700D02*
D03*
Y0196700D02*
D03*
Y0206700D02*
D03*
Y0216700D02*
D03*
Y0166700D02*
D03*
Y0156700D02*
D03*
Y0146700D02*
D03*
Y0136700D02*
D03*
Y0126700D02*
D03*
X0389900Y0220300D02*
D03*
Y0210300D02*
D03*
Y0230300D02*
D03*
Y0190300D02*
D03*
Y0200300D02*
D03*
Y0260300D02*
D03*
Y0240300D02*
D03*
Y0250300D02*
D03*
Y0180300D02*
D03*
Y0150300D02*
D03*
Y0170300D02*
D03*
X0309900Y0180300D02*
D03*
Y0190300D02*
D03*
X0389900Y0160300D02*
D03*
X0309900Y0170300D02*
D03*
Y0300300D02*
D03*
Y0280300D02*
D03*
Y0290300D02*
D03*
Y0260300D02*
D03*
Y0270300D02*
D03*
Y0240300D02*
D03*
Y0250300D02*
D03*
Y0220300D02*
D03*
Y0230300D02*
D03*
Y0210300D02*
D03*
Y0200300D02*
D03*
Y0150300D02*
D03*
Y0160300D02*
D03*
X0203700Y0300500D02*
D03*
Y0290500D02*
D03*
Y0280500D02*
D03*
X0193700Y0300500D02*
D03*
Y0290500D02*
D03*
Y0280500D02*
D03*
X0289200Y0305200D02*
D03*
Y0295200D02*
D03*
Y0285200D02*
D03*
Y0275200D02*
D03*
Y0265200D02*
D03*
Y0255200D02*
D03*
X0282000Y0346500D02*
D03*
X0274100D02*
D03*
X0237100D02*
D03*
X0245000D02*
D03*
D14*
X0271400Y0260200D02*
D03*
Y0250200D02*
D03*
Y0240200D02*
D03*
Y0230200D02*
D03*
X0241400Y0260200D02*
D03*
Y0250200D02*
D03*
Y0240200D02*
D03*
Y0230200D02*
D03*
X0271100Y0303300D02*
D03*
Y0293300D02*
D03*
Y0323300D02*
D03*
Y0313300D02*
D03*
X0241100Y0323300D02*
D03*
Y0313300D02*
D03*
Y0303300D02*
D03*
Y0293300D02*
D03*
X0361800Y0162500D02*
D03*
Y0172500D02*
D03*
Y0152500D02*
D03*
Y0192500D02*
D03*
Y0202500D02*
D03*
Y0182500D02*
D03*
Y0142500D02*
D03*
X0331800Y0202500D02*
D03*
Y0192500D02*
D03*
Y0182500D02*
D03*
Y0172500D02*
D03*
Y0162500D02*
D03*
Y0152500D02*
D03*
Y0142500D02*
D03*
X0368200Y0307600D02*
D03*
Y0297600D02*
D03*
Y0287600D02*
D03*
Y0277600D02*
D03*
Y0267600D02*
D03*
Y0257600D02*
D03*
Y0247600D02*
D03*
X0338200D02*
D03*
Y0257600D02*
D03*
Y0267600D02*
D03*
Y0277600D02*
D03*
Y0287600D02*
D03*
Y0297600D02*
D03*
Y0307600D02*
D03*
D15*
X0200100Y0134900D02*
D03*
X0383200Y0357100D02*
D03*
X0201800Y0356800D02*
D03*
D16*
X0288600Y0230900D02*
D03*
X0374400Y0134800D02*
D03*
X0298700Y0235500D02*
D03*
X0379300Y0234300D02*
D03*
X0322300Y0197200D02*
D03*
X0220900Y0307800D02*
D03*
M02*
