G04 Layer_Color=65535*
%FSAX25Y25*%
%MOIN*%
G70*
G01*
G75*
%ADD12C,0.01000*%
D12*
X0281400Y0131700D02*
G03*
X0281400Y0131700I-0003000J0000000D01*
G01*
X0312728Y0310300D02*
G03*
X0312728Y0310300I-0002828J0000000D01*
G01*
X0251400Y0265200D02*
G03*
X0261400Y0265200I0005000J0000000D01*
G01*
X0244814Y0267200D02*
G03*
X0244814Y0267200I-0001414J0000000D01*
G01*
X0270514Y0286300D02*
G03*
X0270514Y0286300I-0001414J0000000D01*
G01*
X0261100Y0288300D02*
G03*
X0251100Y0288300I-0005000J0000000D01*
G01*
X0358800Y0134500D02*
G03*
X0358689Y0135049I0001303J0000549D01*
G01*
X0351272Y0137500D02*
G03*
X0342328Y0137500I-0004472J0000000D01*
G01*
X0348728Y0312600D02*
G03*
X0357672Y0312600I0004472J0000000D01*
G01*
X0341200Y0315600D02*
G03*
X0341311Y0315051I-0001303J-0000549D01*
G01*
X0299436Y0245200D02*
G03*
X0299436Y0245200I-0002236J0000000D01*
G01*
X0287400Y0351200D02*
G03*
X0287400Y0351200I-0001000J0000000D01*
G01*
X0234814Y0352200D02*
G03*
X0234814Y0352200I-0001414J0000000D01*
G01*
X0222400Y0121700D02*
X0292400D01*
X0222400D02*
Y0222700D01*
X0292400D01*
Y0221700D02*
Y0222700D01*
Y0121700D02*
Y0221700D01*
X0395900Y0125300D02*
Y0323300D01*
X0303900D02*
X0395900D01*
X0303900Y0125300D02*
X0395900D01*
X0303900D02*
Y0323300D01*
X0261400Y0265200D02*
X0265900D01*
X0246400D02*
X0251400D01*
X0265900Y0225200D02*
Y0265200D01*
X0246400Y0225200D02*
Y0265200D01*
Y0225200D02*
X0265900D01*
X0261100Y0288300D02*
X0266100D01*
Y0328300D01*
X0246600D02*
X0266100D01*
X0246600Y0288300D02*
Y0328300D01*
Y0288300D02*
X0251100D01*
X0351800Y0137500D02*
X0356800D01*
Y0207500D01*
X0336800D02*
X0356800D01*
X0336800Y0137500D02*
Y0207500D01*
Y0137500D02*
X0341800D01*
X0358200Y0312600D02*
X0363200D01*
Y0242600D02*
Y0312600D01*
X0343200Y0242600D02*
X0363200D01*
X0343200D02*
Y0312600D01*
X0348200D01*
X0294200Y0236200D02*
Y0323700D01*
X0219200Y0324200D02*
X0294200D01*
X0219200Y0236200D02*
X0294200D01*
X0219200D02*
Y0324200D01*
X0289600Y0340200D02*
Y0370000D01*
X0289400Y0370200D02*
X0289600Y0370000D01*
X0266400Y0370200D02*
X0289400D01*
X0266400Y0340200D02*
X0289600D01*
X0266400D02*
Y0370200D01*
X0229400Y0340200D02*
Y0370200D01*
Y0340200D02*
X0252600D01*
X0229400Y0370200D02*
X0252400D01*
X0252600Y0370000D01*
Y0340200D02*
Y0370000D01*
X0225200Y0214900D02*
Y0217566D01*
X0226533Y0218899D01*
X0227866Y0217566D01*
Y0214900D01*
Y0216899D01*
X0225200D01*
X0229199Y0218899D02*
Y0214900D01*
X0231198D01*
X0231865Y0215566D01*
Y0218232D01*
X0231198Y0218899D01*
X0229199D01*
X0235863Y0218232D02*
X0235197Y0218899D01*
X0233864D01*
X0233197Y0218232D01*
Y0215566D01*
X0233864Y0214900D01*
X0235197D01*
X0235863Y0215566D01*
X0309966Y0321999D02*
X0307300D01*
Y0318000D01*
X0309966D01*
X0307300Y0319999D02*
X0308633D01*
X0313965Y0321332D02*
X0313298Y0321999D01*
X0311965D01*
X0311299Y0321332D01*
Y0320666D01*
X0311965Y0319999D01*
X0313298D01*
X0313965Y0319333D01*
Y0318666D01*
X0313298Y0318000D01*
X0311965D01*
X0311299Y0318666D01*
X0315297Y0318000D02*
Y0321999D01*
X0317297D01*
X0317963Y0321332D01*
Y0319999D01*
X0317297Y0319333D01*
X0315297D01*
X0209000Y0173598D02*
Y0170266D01*
X0207334Y0168600D01*
X0204002D01*
X0202336Y0170266D01*
Y0173598D01*
X0204002Y0175265D01*
X0205668D01*
Y0168600D01*
X0200669Y0185261D02*
X0199003Y0183595D01*
Y0180263D01*
X0200669Y0178597D01*
X0207334D01*
X0209000Y0180263D01*
Y0183595D01*
X0207334Y0185261D01*
X0209000Y0188593D02*
X0202336D01*
X0199003Y0191926D01*
X0202336Y0195258D01*
X0209000D01*
X0204002D01*
Y0188593D01*
X0199003Y0198590D02*
Y0205255D01*
Y0201923D01*
X0209000D01*
X0200669Y0215252D02*
X0199003Y0213585D01*
Y0210253D01*
X0200669Y0208587D01*
X0202336D01*
X0204002Y0210253D01*
Y0213585D01*
X0205668Y0215252D01*
X0207334D01*
X0209000Y0213585D01*
Y0210253D01*
X0207334Y0208587D01*
X0243000Y0270700D02*
Y0273699D01*
X0244499D01*
X0244999Y0273199D01*
Y0272200D01*
X0244499Y0271700D01*
X0243000D01*
X0244000D02*
X0244999Y0270700D01*
X0247998D02*
X0245999D01*
X0247998Y0272699D01*
Y0273199D01*
X0247498Y0273699D01*
X0246499D01*
X0245999Y0273199D01*
X0251600Y0257599D02*
X0252933D01*
X0252266D01*
Y0253600D01*
X0251600D01*
X0252933D01*
X0257598Y0256932D02*
X0256932Y0257599D01*
X0255599D01*
X0254932Y0256932D01*
Y0254266D01*
X0255599Y0253600D01*
X0256932D01*
X0257598Y0254266D01*
X0258931Y0253600D02*
X0260264D01*
X0259597D01*
Y0257599D01*
X0258931Y0256932D01*
X0240500Y0279900D02*
Y0282899D01*
X0242000D01*
X0242499Y0282399D01*
Y0281399D01*
X0242000Y0280900D01*
X0240500D01*
X0241500D02*
X0242499Y0279900D01*
X0243499D02*
X0244499D01*
X0243999D01*
Y0282899D01*
X0243499Y0282399D01*
X0245998D02*
X0246498Y0282899D01*
X0247498D01*
X0247998Y0282399D01*
Y0281899D01*
X0247498Y0281399D01*
X0246998D01*
X0247498D01*
X0247998Y0280900D01*
Y0280400D01*
X0247498Y0279900D01*
X0246498D01*
X0245998Y0280400D01*
X0289399Y0313399D02*
X0288899Y0313899D01*
X0287900D01*
X0287400Y0313399D01*
Y0311400D01*
X0287900Y0310900D01*
X0288899D01*
X0289399Y0311400D01*
X0290399Y0310900D02*
X0291399D01*
X0290899D01*
Y0313899D01*
X0290399Y0313399D01*
X0228099Y0294299D02*
X0227600Y0294799D01*
X0226600D01*
X0226100Y0294299D01*
Y0292300D01*
X0226600Y0291800D01*
X0227600D01*
X0228099Y0292300D01*
X0230598Y0291800D02*
Y0294799D01*
X0229099Y0293300D01*
X0231098D01*
X0250300Y0320299D02*
X0251633D01*
X0250966D01*
Y0316300D01*
X0250300D01*
X0251633D01*
X0256298Y0319632D02*
X0255632Y0320299D01*
X0254299D01*
X0253632Y0319632D01*
Y0316966D01*
X0254299Y0316300D01*
X0255632D01*
X0256298Y0316966D01*
X0257631Y0319632D02*
X0258297Y0320299D01*
X0259630D01*
X0260297Y0319632D01*
Y0318966D01*
X0259630Y0318299D01*
X0258964D01*
X0259630D01*
X0260297Y0317633D01*
Y0316966D01*
X0259630Y0316300D01*
X0258297D01*
X0257631Y0316966D01*
X0380400Y0142800D02*
Y0145799D01*
X0381899D01*
X0382399Y0145299D01*
Y0144299D01*
X0381899Y0143800D01*
X0380400D01*
X0381400D02*
X0382399Y0142800D01*
X0383399D02*
X0384399D01*
X0383899D01*
Y0145799D01*
X0383399Y0145299D01*
X0385898Y0145799D02*
X0387898D01*
Y0145299D01*
X0385898Y0143300D01*
Y0142800D01*
X0380200Y0164400D02*
Y0167399D01*
X0381699D01*
X0382199Y0166899D01*
Y0165900D01*
X0381699Y0165400D01*
X0380200D01*
X0381200D02*
X0382199Y0164400D01*
X0383199D02*
X0384199D01*
X0383699D01*
Y0167399D01*
X0383199Y0166899D01*
X0385698D02*
X0386198Y0167399D01*
X0387198D01*
X0387698Y0166899D01*
Y0166399D01*
X0387198Y0165900D01*
X0387698Y0165400D01*
Y0164900D01*
X0387198Y0164400D01*
X0386198D01*
X0385698Y0164900D01*
Y0165400D01*
X0386198Y0165900D01*
X0385698Y0166399D01*
Y0166899D01*
X0386198Y0165900D02*
X0387198D01*
X0380400Y0173900D02*
Y0176899D01*
X0381899D01*
X0382399Y0176399D01*
Y0175399D01*
X0381899Y0174900D01*
X0380400D01*
X0381400D02*
X0382399Y0173900D01*
X0383399D02*
X0384399D01*
X0383899D01*
Y0176899D01*
X0383399Y0176399D01*
X0387398Y0173900D02*
Y0176899D01*
X0385898Y0175399D01*
X0387898D01*
X0381200Y0194200D02*
Y0197199D01*
X0382699D01*
X0383199Y0196699D01*
Y0195700D01*
X0382699Y0195200D01*
X0381200D01*
X0382200D02*
X0383199Y0194200D01*
X0384199D02*
X0385199D01*
X0384699D01*
Y0197199D01*
X0384199Y0196699D01*
X0388698Y0194200D02*
X0386698D01*
X0388698Y0196199D01*
Y0196699D01*
X0388198Y0197199D01*
X0387198D01*
X0386698Y0196699D01*
X0371300Y0216200D02*
Y0219199D01*
X0372799D01*
X0373299Y0218699D01*
Y0217700D01*
X0372799Y0217200D01*
X0371300D01*
X0372300D02*
X0373299Y0216200D01*
X0374299D02*
X0375299D01*
X0374799D01*
Y0219199D01*
X0374299Y0218699D01*
X0378798Y0219199D02*
X0377798Y0218699D01*
X0376798Y0217700D01*
Y0216700D01*
X0377298Y0216200D01*
X0378298D01*
X0378798Y0216700D01*
Y0217200D01*
X0378298Y0217700D01*
X0376798D01*
X0340800Y0204099D02*
X0342133D01*
X0341466D01*
Y0200100D01*
X0340800D01*
X0342133D01*
X0346798Y0203432D02*
X0346132Y0204099D01*
X0344799D01*
X0344132Y0203432D01*
Y0200766D01*
X0344799Y0200100D01*
X0346132D01*
X0346798Y0200766D01*
X0350130Y0200100D02*
Y0204099D01*
X0348131Y0202099D01*
X0350797D01*
X0323300Y0220200D02*
Y0223199D01*
X0324799D01*
X0325299Y0222699D01*
Y0221700D01*
X0324799Y0221200D01*
X0323300D01*
X0324300D02*
X0325299Y0220200D01*
X0326299D02*
X0327299D01*
X0326799D01*
Y0223199D01*
X0326299Y0222699D01*
X0328798Y0220700D02*
X0329298Y0220200D01*
X0330298D01*
X0330798Y0220700D01*
Y0222699D01*
X0330298Y0223199D01*
X0329298D01*
X0328798Y0222699D01*
Y0222199D01*
X0329298Y0221700D01*
X0330798D01*
X0343200Y0219700D02*
Y0222699D01*
X0344700D01*
X0345199Y0222199D01*
Y0221199D01*
X0344700Y0220700D01*
X0343200D01*
X0344200D02*
X0345199Y0219700D01*
X0348198D02*
X0346199D01*
X0348198Y0221699D01*
Y0222199D01*
X0347698Y0222699D01*
X0346699D01*
X0346199Y0222199D01*
X0349198D02*
X0349698Y0222699D01*
X0350698D01*
X0351197Y0222199D01*
Y0220200D01*
X0350698Y0219700D01*
X0349698D01*
X0349198Y0220200D01*
Y0222199D01*
X0327300Y0301900D02*
Y0304899D01*
X0328800D01*
X0329299Y0304399D01*
Y0303399D01*
X0328800Y0302900D01*
X0327300D01*
X0328300D02*
X0329299Y0301900D01*
X0332298Y0304899D02*
X0331299Y0304399D01*
X0330299Y0303399D01*
Y0302400D01*
X0330799Y0301900D01*
X0331799D01*
X0332298Y0302400D01*
Y0302900D01*
X0331799Y0303399D01*
X0330299D01*
X0327300Y0285900D02*
Y0288899D01*
X0328800D01*
X0329299Y0288399D01*
Y0287400D01*
X0328800Y0286900D01*
X0327300D01*
X0328300D02*
X0329299Y0285900D01*
X0330299Y0288899D02*
X0332298D01*
Y0288399D01*
X0330299Y0286400D01*
Y0285900D01*
X0327300Y0269800D02*
Y0272799D01*
X0328800D01*
X0329299Y0272299D01*
Y0271300D01*
X0328800Y0270800D01*
X0327300D01*
X0328300D02*
X0329299Y0269800D01*
X0330299Y0272299D02*
X0330799Y0272799D01*
X0331799D01*
X0332298Y0272299D01*
Y0271799D01*
X0331799Y0271300D01*
X0331299D01*
X0331799D01*
X0332298Y0270800D01*
Y0270300D01*
X0331799Y0269800D01*
X0330799D01*
X0330299Y0270300D01*
X0327900Y0252700D02*
Y0255699D01*
X0329399D01*
X0329899Y0255199D01*
Y0254200D01*
X0329399Y0253700D01*
X0327900D01*
X0328900D02*
X0329899Y0252700D01*
X0330899D02*
X0331899D01*
X0331399D01*
Y0255699D01*
X0330899Y0255199D01*
X0327200Y0235400D02*
Y0238399D01*
X0328699D01*
X0329199Y0237899D01*
Y0236899D01*
X0328699Y0236400D01*
X0327200D01*
X0328200D02*
X0329199Y0235400D01*
X0332198Y0238399D02*
X0330199D01*
Y0236899D01*
X0331199Y0237399D01*
X0331698D01*
X0332198Y0236899D01*
Y0235900D01*
X0331698Y0235400D01*
X0330699D01*
X0330199Y0235900D01*
X0337700Y0234000D02*
Y0236999D01*
X0339199D01*
X0339699Y0236499D01*
Y0235500D01*
X0339199Y0235000D01*
X0337700D01*
X0338700D02*
X0339699Y0234000D01*
X0340699Y0234500D02*
X0341199Y0234000D01*
X0342198D01*
X0342698Y0234500D01*
Y0236499D01*
X0342198Y0236999D01*
X0341199D01*
X0340699Y0236499D01*
Y0235999D01*
X0341199Y0235500D01*
X0342698D01*
X0387099Y0308099D02*
X0386599Y0308599D01*
X0385600D01*
X0385100Y0308099D01*
Y0306100D01*
X0385600Y0305600D01*
X0386599D01*
X0387099Y0306100D01*
X0388099Y0308099D02*
X0388599Y0308599D01*
X0389598D01*
X0390098Y0308099D01*
Y0307599D01*
X0389598Y0307100D01*
X0389099D01*
X0389598D01*
X0390098Y0306600D01*
Y0306100D01*
X0389598Y0305600D01*
X0388599D01*
X0388099Y0306100D01*
X0348100Y0317700D02*
Y0320699D01*
X0349600D01*
X0350099Y0320199D01*
Y0319199D01*
X0349600Y0318700D01*
X0348100D01*
X0349100D02*
X0350099Y0317700D01*
X0352599D02*
Y0320699D01*
X0351099Y0319199D01*
X0353098D01*
X0364600Y0227700D02*
Y0230699D01*
X0366100D01*
X0366599Y0230199D01*
Y0229200D01*
X0366100Y0228700D01*
X0364600D01*
X0365600D02*
X0366599Y0227700D01*
X0367599Y0230199D02*
X0368099Y0230699D01*
X0369098D01*
X0369598Y0230199D01*
Y0229699D01*
X0369098Y0229200D01*
X0369598Y0228700D01*
Y0228200D01*
X0369098Y0227700D01*
X0368099D01*
X0367599Y0228200D01*
Y0228700D01*
X0368099Y0229200D01*
X0367599Y0229699D01*
Y0230199D01*
X0368099Y0229200D02*
X0369098D01*
X0375400Y0260300D02*
Y0263299D01*
X0376900D01*
X0377399Y0262799D01*
Y0261800D01*
X0376900Y0261300D01*
X0375400D01*
X0376400D02*
X0377399Y0260300D01*
X0378399D02*
X0379399D01*
X0378899D01*
Y0263299D01*
X0378399Y0262799D01*
X0380898D02*
X0381398Y0263299D01*
X0382398D01*
X0382898Y0262799D01*
Y0260800D01*
X0382398Y0260300D01*
X0381398D01*
X0380898Y0260800D01*
Y0262799D01*
X0386100Y0271000D02*
Y0273999D01*
X0387599D01*
X0388099Y0273499D01*
Y0272499D01*
X0387599Y0272000D01*
X0386100D01*
X0387100D02*
X0388099Y0271000D01*
X0389099D02*
X0390099D01*
X0389599D01*
Y0273999D01*
X0389099Y0273499D01*
X0391598Y0271000D02*
X0392598D01*
X0392098D01*
Y0273999D01*
X0391598Y0273499D01*
X0387999Y0288899D02*
X0387499Y0289399D01*
X0386500D01*
X0386000Y0288899D01*
Y0286900D01*
X0386500Y0286400D01*
X0387499D01*
X0387999Y0286900D01*
X0390998Y0286400D02*
X0388999D01*
X0390998Y0288399D01*
Y0288899D01*
X0390498Y0289399D01*
X0389499D01*
X0388999Y0288899D01*
X0347900Y0303999D02*
X0349233D01*
X0348566D01*
Y0300000D01*
X0347900D01*
X0349233D01*
X0353898Y0303332D02*
X0353232Y0303999D01*
X0351899D01*
X0351232Y0303332D01*
Y0300666D01*
X0351899Y0300000D01*
X0353232D01*
X0353898Y0300666D01*
X0357897Y0300000D02*
X0355231D01*
X0357897Y0302666D01*
Y0303332D01*
X0357230Y0303999D01*
X0355897D01*
X0355231Y0303332D01*
X0194300Y0310399D02*
X0195633D01*
X0194966D01*
Y0306400D01*
X0194300D01*
X0195633D01*
X0197632D02*
Y0310399D01*
X0200298Y0306400D01*
Y0310399D01*
X0222900Y0317200D02*
Y0319866D01*
X0224233Y0321199D01*
X0225566Y0319866D01*
Y0317200D01*
Y0319199D01*
X0222900D01*
X0229564Y0320532D02*
X0228898Y0321199D01*
X0227565D01*
X0226899Y0320532D01*
Y0317866D01*
X0227565Y0317200D01*
X0228898D01*
X0229564Y0317866D01*
X0233563Y0320532D02*
X0232897Y0321199D01*
X0231564D01*
X0230897Y0320532D01*
Y0317866D01*
X0231564Y0317200D01*
X0232897D01*
X0233563Y0317866D01*
X0228800Y0327500D02*
Y0330499D01*
X0230299D01*
X0230799Y0329999D01*
Y0328999D01*
X0230299Y0328500D01*
X0228800D01*
X0229800D02*
X0230799Y0327500D01*
X0231799D02*
X0232799D01*
X0232299D01*
Y0330499D01*
X0231799Y0329999D01*
X0236298Y0330499D02*
X0234298D01*
Y0328999D01*
X0235298Y0329499D01*
X0235798D01*
X0236298Y0328999D01*
Y0328000D01*
X0235798Y0327500D01*
X0234798D01*
X0234298Y0328000D01*
X0233300Y0367299D02*
Y0363300D01*
X0235299D01*
X0235966Y0363966D01*
Y0364633D01*
X0235299Y0365299D01*
X0233300D01*
X0235299D01*
X0235966Y0365966D01*
Y0366632D01*
X0235299Y0367299D01*
X0233300D01*
X0237299Y0363300D02*
Y0365966D01*
X0238632Y0367299D01*
X0239965Y0365966D01*
Y0363300D01*
Y0365299D01*
X0237299D01*
X0241297Y0367299D02*
X0243963D01*
X0242630D01*
Y0363300D01*
M02*
